<svg id="Oscuro" xmlns="http://www.w3.org/2000/svg" viewBox="0 0 1000 852.14"><defs><style>.cls-1,.cls-12{fill:#f3eb33;}.cls-2{fill:#302f2c;}.cls-3{fill:#d93e30;}.cls-4{fill:#038e35;}.cls-5{fill:#d9c911;}.cls-6{fill:#fce913;}.cls-7{fill:#fefefe;}.cls-8{fill:#e6e6e6;}.cls-10,.cls-9{fill:#fff;}.cls-10,.cls-11,.cls-12{fill-rule:evenodd;}.cls-11{fill:#22a9e0;}</style></defs><g id="Capa_4" data-name="Capa 4"><path class="cls-1" d="M246.91,949.21q8.7-8.88,22.13-8.88,18,0,26.28,11.91a25.91,25.91,0,0,1,4.92,13.43h-15a20.45,20.45,0,0,0-3.69-7.81q-4-4.7-11.91-4.69a14.69,14.69,0,0,0-12.68,6.62q-4.63,6.62-4.64,18.72t4.9,18.14a15.34,15.34,0,0,0,12.44,6q7.74,0,11.8-5.18a22.61,22.61,0,0,0,3.73-8.34H300.1a32.44,32.44,0,0,1-9.88,19.14q-8,7.37-20.36,7.37-15.36,0-24.15-10t-8.8-27.44Q236.91,959.42,246.91,949.21Z" transform="translate(-100 -163.53)"/><path class="cls-1" d="M367.68,1007.27q-8.16,8.4-23.59,8.4t-23.58-8.4Q309.58,997,309.57,977.58q0-19.77,10.94-29.68,8.14-8.4,23.58-8.4t23.59,8.4q10.88,9.9,10.88,29.68Q378.56,997,367.68,1007.27Zm-9.4-10.94q5.25-6.58,5.25-18.75t-5.25-18.72a17.17,17.17,0,0,0-14.19-6.62,17.4,17.4,0,0,0-14.26,6.59q-5.31,6.6-5.32,18.75t5.32,18.75a17.37,17.37,0,0,0,14.26,6.59A17.17,17.17,0,0,0,358.28,996.33Z" transform="translate(-100 -163.53)"/><path class="cls-1" d="M396.91,949.21q8.7-8.88,22.13-8.88,18,0,26.28,11.91a25.91,25.91,0,0,1,4.92,13.43h-15a20.45,20.45,0,0,0-3.69-7.81q-4-4.7-11.91-4.69a14.69,14.69,0,0,0-12.68,6.62q-4.64,6.62-4.64,18.72t4.9,18.14a15.34,15.34,0,0,0,12.44,6q7.74,0,11.8-5.18a22.61,22.61,0,0,0,3.73-8.34H450.1a32.44,32.44,0,0,1-9.88,19.14q-8,7.37-20.36,7.37-15.36,0-24.15-10t-8.8-27.44Q386.91,959.42,396.91,949.21Z" transform="translate(-100 -163.53)"/><path class="cls-1" d="M462.16,1013.67v-72H477.1v27.45h28V941.69H520v72H505.08V981.54h-28v32.13Z" transform="translate(-100 -163.53)"/><path class="cls-1" d="M555.05,941.69h17l25.46,72h-16.3l-4.75-14.8H550l-4.88,14.8H529.36Zm-1,44.78H572.5l-9.1-28.32Z" transform="translate(-100 -163.53)"/><path class="cls-1" d="M660.37,949.36a18.32,18.32,0,0,1,3.3,11q0,6.58-3.33,10.59a17,17,0,0,1-5.49,4.1,16.1,16.1,0,0,1,8.31,6.35A19,19,0,0,1,666,991.94a21,21,0,0,1-3.21,11.47,19.74,19.74,0,0,1-13.23,9.28,49.87,49.87,0,0,1-10.17,1H606.93v-72h34.78Q654.88,941.9,660.37,949.36Zm-39.08,4.83v15.87h17.49a14.43,14.43,0,0,0,7.61-1.78c2-1.19,2.93-3.29,2.93-6.32,0-3.35-1.29-5.57-3.87-6.64a27,27,0,0,0-8.5-1.13Zm0,27.79v19.19h17.47a17.09,17.09,0,0,0,7.29-1.27q4.73-2.35,4.73-9,0-5.61-4.58-7.71A18.22,18.22,0,0,0,639,982Z" transform="translate(-100 -163.53)"/><path class="cls-1" d="M699.49,941.69h17l25.47,72H725.66l-4.75-14.8h-26.5l-4.88,14.8H673.79Zm-1,44.78h18.43l-9.09-28.32Z" transform="translate(-100 -163.53)"/><path class="cls-1" d="M798.87,941.69h21.64v72h-14V965c0-1.4,0-3.36,0-5.89s.05-4.47.05-5.83L793,1013.67H778.34l-13.55-60.4c0,1.36,0,3.31.05,5.83s0,4.49,0,5.89v48.68h-14v-72h21.88l13.1,56.6Z" transform="translate(-100 -163.53)"/><path class="cls-1" d="M888.1,949.36a18.32,18.32,0,0,1,3.31,11q0,6.58-3.34,10.59a17,17,0,0,1-5.49,4.1,16.09,16.09,0,0,1,8.32,6.35,19,19,0,0,1,2.8,10.55,21.08,21.08,0,0,1-3.2,11.47,19.8,19.8,0,0,1-13.23,9.28,50,50,0,0,1-10.17,1H834.67v-72h34.78Q882.62,941.9,888.1,949.36ZM849,954.19v15.87h17.5a14.46,14.46,0,0,0,7.61-1.78c2-1.19,2.92-3.29,2.92-6.32,0-3.35-1.29-5.57-3.87-6.64a27,27,0,0,0-8.5-1.13ZM849,982v19.19H866.5a17.09,17.09,0,0,0,7.29-1.27q4.73-2.35,4.73-9,0-5.61-4.59-7.71a18.16,18.16,0,0,0-7.19-1.22Z" transform="translate(-100 -163.53)"/><path class="cls-1" d="M927.22,941.69h17l25.46,72H953.39l-4.75-14.8h-26.5l-4.88,14.8H901.53Zm-1,44.78h18.43l-9.09-28.32Z" transform="translate(-100 -163.53)"/><path class="cls-2" d="M930.09,353.21a10.23,10.23,0,0,0-1.13-.45c-7.83-2.67-14.69-7.05-21.08-12.19-10.67-8.59-19-19.2-26.7-30.45-9.38-13.76-17.42-28.36-26.72-42.17-6.47-9.59-13.5-18.7-22-26.59a82.06,82.06,0,0,0-30.32-18.14c-.33-.11-.88-.08-1.15-.36a.66.66,0,0,1-.16-.57.52.52,0,0,1,.45-.48c.2-.08.45-.09.67-.16a9,9,0,0,0,5.77-11,9.15,9.15,0,0,0-11-6.58,9,9,0,0,0-6.9,10.35,6.53,6.53,0,0,1,.17,1.27,5.62,5.62,0,0,1-.15,1.59h0a11.16,11.16,0,0,0,2.68,2.83,2.45,2.45,0,0,1,.6.42l.17.13a8.81,8.81,0,0,0,1.71.94c.15,0,.3,0,.42,0a1.71,1.71,0,0,1,.84.25,10.12,10.12,0,0,0,3,.24s-31.06,58-49.87,99.24l.74.29,1.85.73a3.59,3.59,0,0,1,2.31.12,77.73,77.73,0,0,1,19.52,9.6c10.16,6.85,18.6,15.56,26.65,24.69,7.91,8.94,15.83,17.89,25.42,25.92a91.8,91.8,0,0,0,30.63,17.45,11.63,11.63,0,0,0,11.18-1.45c19.62-13.08,39.31-26,59.26-38.61a27.39,27.39,0,0,0,3.84-2.95C932.62,355.48,932.35,354.25,930.09,353.21ZM794.64,206.85a5.86,5.86,0,0,1,6.55-.76c2.8.69,4.62,4.5,4.21,7a6.93,6.93,0,0,1-6,6,6.65,6.65,0,0,1-7.31-4.45A6.44,6.44,0,0,1,794.64,206.85ZM926.11,357.41q-8.79,5.56-17.63,11.11a9.3,9.3,0,0,1-1.43.65c-3,2.56-6.5,4.27-9.73,6.43-3.81,2.54-7.72,4.91-11.58,7.37a4.66,4.66,0,0,1-2.62.89c-.19,1.18-1.25,1.45-2.06,1.93-2.38,1.43-4.91,2.73-7.1,4.35-2.78,2-6,3.45-8.57,5.68-2.26,1.94-4.67,1.37-7.07.63a73,73,0,0,1-14.47-6.07,75.78,75.78,0,0,1-17.24-12.81c-2.77-2.85-5.92-5.33-8.42-8.51-1.62-2.06-3.59-4-5.31-6-2.55-3-5.27-5.8-7.74-8.84-1.81-2.23-3.74-4.38-5.71-6.48-3.26-3.46-6.58-6.88-9.9-10.29a49.15,49.15,0,0,0-9-6.82c-4.34-2.77-8.85-5.29-13.39-7.74a25.67,25.67,0,0,0-6-2.32c-1.9-.48-3.54-1.54-5.44-1.95s-1.82-1.86-1.28-3c2.11-4.37,4.11-8.78,6.42-13.06s4.28-8.9,6.35-13.38a1.71,1.71,0,0,1,1.08-1.08c-.38-.73.08-1.31.36-1.9q7-14.57,14.07-29.13a8.82,8.82,0,0,1,.66-1c2-4.11,3.82-8.32,6-12.35,3-5.65,5.34-11.67,8.69-17.17.78-1.28,1.45-1.73,3.19-1,3.58,1.49,7,3.29,10.43,5.08a46.18,46.18,0,0,1,6.94,4.44c3.42,2.64,6.74,5.41,10,8.24a102.71,102.71,0,0,1,11.68,12.54c3.24,3.93,6.2,8,9.08,12.24,2.77,4,5.32,8.19,7.83,12.39,3.32,5.58,7,11,10.24,16.59,2.77,4.74,5.81,9.29,8.74,13.91,2.07,3.25,4.34,6.36,6.7,9.39,1.89,2.44,3.81,4.85,5.79,7.23a121.12,121.12,0,0,0,13.49,13.31c4.74,4.17,10.11,7.35,15.48,10.53,2.42,1.44,5.31,2.09,8,3.07.72.26,1.56.48,1.71,1.24S926.74,357,926.11,357.41Z" transform="translate(-100 -163.53)"/><path class="cls-3" d="M783.42,256.08c2-4.13,3.83-8.33,6-12.36,3-5.66,5.33-11.67,8.67-17.16.79-1.29,1.46-1.73,3.2-1,3.59,1.49,7,3.29,10.43,5.07a48.18,48.18,0,0,1,6.94,4.46c3.43,2.63,6.74,5.41,10,8.24a102.53,102.53,0,0,1,11.68,12.52c3.24,3.94,6.2,8.06,9.08,12.25,2.78,4,5.32,8.2,7.82,12.4,3.33,5.58,7,11,10.25,16.58,2.76,4.74,5.81,9.29,8.74,13.91,2.07,3.25,4.34,6.35,6.7,9.4,1.89,2.44,3.81,4.84,5.79,7.22a122.76,122.76,0,0,0,13.48,13.31c4.75,4.17,10.13,7.35,15.49,10.53,2.42,1.44,5.3,2.09,8,3.07.71.25,1.55.48,1.7,1.24s-.64,1.27-1.26,1.66q-8.8,5.56-17.62,11.11a12.34,12.34,0,0,1-1.43.66l-8.56-3a76.54,76.54,0,0,1-16-9.24c-10.73-8.06-19.12-18.31-26.86-29.14-8.36-11.71-15.82-24.05-24.47-35.57-7.6-10.1-15.85-19.56-26.49-26.65A62.32,62.32,0,0,0,788,257.1C786.51,256.62,785.11,255.58,783.42,256.08Z" transform="translate(-100 -163.53)"/><path class="cls-4" d="M883.12,383.87c-.19,1.16-1.25,1.44-2,1.92-2.39,1.43-4.92,2.74-7.11,4.34-2.79,2.05-6,3.45-8.58,5.69-2.25,1.93-4.66,1.37-7.07.63a72.52,72.52,0,0,1-14.46-6.07,76.08,76.08,0,0,1-17.24-12.81c-2.77-2.85-5.92-5.33-8.43-8.51-1.62-2.06-3.58-4-5.3-6-2.55-3-5.27-5.81-7.74-8.86-1.82-2.23-3.74-4.37-5.71-6.47-3.26-3.47-6.58-6.88-9.9-10.28a48.65,48.65,0,0,0-9-6.83c-4.35-2.77-8.86-5.28-13.39-7.74a26.12,26.12,0,0,0-6-2.32c-1.9-.48-3.54-1.54-5.43-1.95s-1.83-1.86-1.29-3c2.1-4.37,4.11-8.78,6.43-13.06s4.27-8.9,6.34-13.38a1.66,1.66,0,0,1,1.08-1.08,62.73,62.73,0,0,1,21.24,9.45c.17.2.31.48.53.6,5.49,3,9.95,7.31,14.26,11.72,9.87,10.07,17.79,21.73,26.37,32.85,6.39,8.3,12.54,16.82,20.68,23.61,4.27,3.55,8.35,7.36,13.47,9.74a41.61,41.61,0,0,0,8.56,4.43C876.61,381.77,879.89,382.76,883.12,383.87Z" transform="translate(-100 -163.53)"/><path class="cls-5" d="M789.57,297.57a62.73,62.73,0,0,0-21.24-9.45c-.37-.73.08-1.31.36-1.9q7-14.57,14.07-29.12a8,8,0,0,1,.66-1c1.69-.5,3.09.54,4.54,1a62.32,62.32,0,0,1,16.72,8.49,3.5,3.5,0,0,1-2.64-1.24c-1-.82-1.75-.54-2.32.44a76.28,76.28,0,0,0-9.1,25.11C790.18,292.45,790.42,295.09,789.57,297.57Z" transform="translate(-100 -163.53)"/><path class="cls-6" d="M793.17,220.51l-.6-.42A2.45,2.45,0,0,1,793.17,220.51Z" transform="translate(-100 -163.53)"/><path class="cls-5" d="M796.31,221.86c-.29-.07-.57-.16-.84-.25A1.71,1.71,0,0,1,796.31,221.86Z" transform="translate(-100 -163.53)"/><path class="cls-5" d="M883.12,383.87c-3.23-1.11-6.51-2.1-9.68-3.35a41.61,41.61,0,0,1-8.56-4.43c.84-.46,1.71,0,2.57-.08a72.77,72.77,0,0,0,22.45-4.73,41.65,41.65,0,0,0,8-3.64c.58-.38,1.33-.57.62-1.45l8.56,3c-3,2.55-6.51,4.26-9.74,6.42-3.8,2.54-7.72,4.91-11.58,7.37A5,5,0,0,1,883.12,383.87Z" transform="translate(-100 -163.53)"/><path class="cls-6" d="M804,211.59a4.59,4.59,0,0,0-2.2-5,3.67,3.67,0,0,1-.59-.53,5.86,5.86,0,0,0-6.55.76c-3.3,3.28-.91,8.27,3.21,9.22a3.27,3.27,0,0,0,2,.08A6.79,6.79,0,0,0,804,211.59Zm-4.29-2.16a1.53,1.53,0,0,1-2.3.21c-.83-.6-1-1.37-.36-2s1.29-1.34,2.15-.47C800.06,207.8,800.29,208.67,799.69,209.43Z" transform="translate(-100 -163.53)"/><path class="cls-5" d="M794.63,206.85c-3.3,3.27-.91,8.27,3.22,9.22a3.27,3.27,0,0,0,2,.07,6.77,6.77,0,0,0,4.18-4.55,4.6,4.6,0,0,0-2.21-5,3,3,0,0,1-.59-.53c2.8.69,4.62,4.5,4.21,7a6.92,6.92,0,0,1-6,6,6.65,6.65,0,0,1-7.31-4.45A6.45,6.45,0,0,1,794.63,206.85Z" transform="translate(-100 -163.53)"/><path class="cls-6" d="M898.5,366.19c.71.88,0,1.07-.62,1.45a41.65,41.65,0,0,1-8,3.64A72.77,72.77,0,0,1,867.45,376c-.86.05-1.73-.38-2.57.08-5.12-2.38-9.2-6.19-13.47-9.74-8.14-6.79-14.29-15.31-20.68-23.61-8.58-11.12-16.5-22.78-26.37-32.85-4.31-4.41-8.77-8.72-14.26-11.72-.22-.12-.36-.4-.53-.6.85-2.48.61-5.12,1-7.67a76.28,76.28,0,0,1,9.1-25.11c.57-1,1.36-1.26,2.32-.44a3.5,3.5,0,0,0,2.64,1.24c10.64,7.09,18.89,16.55,26.49,26.65,8.65,11.52,16.11,23.86,24.47,35.57,7.74,10.83,16.13,21.08,26.86,29.14A76.54,76.54,0,0,0,898.5,366.19Z" transform="translate(-100 -163.53)"/><path class="cls-7" d="M799.18,207.11c.88.69,1.11,1.55.51,2.32a1.53,1.53,0,0,1-2.31.21c-.82-.6-1-1.37-.34-2S798.32,206.25,799.18,207.11Z" transform="translate(-100 -163.53)"/><path class="cls-2" d="M715.42,392.1l0-.07,34.69-70.4,47.8-97,3-1.78a.66.66,0,0,1-.16-.57.52.52,0,0,1,.45-.48s0,0,0-.05a9.7,9.7,0,0,1-6.52-.73,9.83,9.83,0,0,1-4.67-5.62,2.33,2.33,0,0,1-.07.25,15.74,15.74,0,0,1-1.65,3.88c-4.91,8.6-9.55,17.36-14,26.22C748,297.88,721,349.64,694,401.4c-4.69,9-9.5,17.9-14.08,26.94-2.94,5.8-3.05,10.68-.8,13.81,3.4,4.74,10.55,1.21,14.84-7.32Q704.72,413.46,715.42,392.1Zm-25.71,40.49-.36.65-.31.48a1,1,0,0,1-.14.21,4.42,4.42,0,0,1-.35.47l-.42.51h0a4.47,4.47,0,0,1-.44.43c-.1.09-.2.18-.32.27a2.54,2.54,0,0,1-.51.37,3.3,3.3,0,0,1-.51.29,2.6,2.6,0,0,1-.36.13,1.24,1.24,0,0,1-.35.1,1.45,1.45,0,0,1-.28,0h-.29a1.21,1.21,0,0,1-.43-.06h-.08l-.08,0a1.77,1.77,0,0,0-.17-.06,3.55,3.55,0,0,1-1.51-1.11,1.18,1.18,0,0,1-.13-.18.09.09,0,0,1,0-.06,1.55,1.55,0,0,1-.12-.22,2.44,2.44,0,0,1-.1-.24,3,3,0,0,1-.15-.64,1.65,1.65,0,0,1,0-.21,2.71,2.71,0,0,1,0-.29,5.86,5.86,0,0,1,.15-1.18,1.74,1.74,0,0,1,0-.22c0-.2.11-.39.17-.6s.15-.44.24-.67.2-.5.32-.77a16.36,16.36,0,0,1,2-3.76c7-13.74,13.92-27.53,21-41.25q15.74-30.58,31.49-61.17,8.63-16.74,17.24-33.45,8-15.57,16.07-31.11T787,228.17c.57-1.09,1.15-2.18,1.69-3.27a1.79,1.79,0,0,0,.12-.24l.51-1c.16-.35.32-.71.47-1.06s.4-.89.6-1.24a2.53,2.53,0,0,1,.13-.22c.07-.12.14-.22.21-.32a2.73,2.73,0,0,1,.2-.25,1.65,1.65,0,0,1,.49-.41l.07,0,.22-.06h.14a.19.19,0,0,1,.11,0l.09,0a1.89,1.89,0,0,1,1,.71.9.9,0,0,0,.18.16,6.66,6.66,0,0,0,1.49.81l.11,0a2.86,2.86,0,0,1,.79-.06,1,1,0,0,1,.59.17l.07,0a.65.65,0,0,1,.17.26,1.08,1.08,0,0,1,.05.21,5.59,5.59,0,0,1-.83,2.4l-.23.44c-1.31,2.45-2.63,4.9-3.91,7.37l-1.92,3.71q-2.53,4.88-5,9.77-1.63,3.21-3.26,6.43c-1.08,2.15-2.16,4.3-3.24,6.43-11.69,23.31-23.62,46.48-35.38,69.74-15.4,30.44-31,60.79-46.49,91.18q-3.23,6.33-6.4,12.68Z" transform="translate(-100 -163.53)"/><path class="cls-6" d="M685.16,426.25c7-13.75,13.92-27.53,21-41.25q24.33-47.33,48.73-94.62,16-31.12,32.14-62.22c1-1.86,2-3.7,2.8-5.61,1-2.4,1.93-3.34,3.22-1.81a5.55,5.55,0,0,0,1.75,1,26.93,26.93,0,0,0-2.67,4.08c-2.67,6.51-6.43,12.45-9.49,18.76-2.75,5.67-5.73,11.29-8.74,16.84-4.58,8.45-8.48,17.23-13.11,25.62-2.26,4.08-4.21,8.29-6.44,12.38-3.64,6.66-7.12,13.42-10.62,20.16-4.07,7.87-8.08,15.77-12.13,23.64-1.21,2.34-2.49,4.63-3.67,7-3.12,6.19-6.15,12.42-9.3,18.59-4.21,8.22-8.54,16.39-12.76,24.61-2.48,4.85-4.83,9.76-7.31,14.61-1.09,2.14-2.52,4.13-3.51,6.29-2.54,5.52-5.51,10.77-8.51,16a6.23,6.23,0,0,1-.65,1.11c-.63.7-1.27,1.4-2,1.21-1.08-.28.09-1.53,0-2.22C683.59,429,686,427.77,685.16,426.25Z" transform="translate(-100 -163.53)"/><path class="cls-5" d="M685.16,426.25c.86,1.52-1.57,2.72-1.36,4.19.11.69-1.06,1.94,0,2.22.76.19,1.4-.51,2-1.21a6.23,6.23,0,0,0,.65-1.11c3-5.25,6-10.5,8.51-16,1-2.16,2.42-4.15,3.51-6.29,2.48-4.85,4.83-9.76,7.31-14.61,4.22-8.22,8.55-16.39,12.76-24.61,3.15-6.17,6.18-12.4,9.3-18.59,1.18-2.35,2.46-4.64,3.67-7,4.05-7.87,8.06-15.77,12.13-23.64,3.5-6.74,7-13.5,10.62-20.16,2.23-4.09,4.18-8.3,6.44-12.38,4.63-8.39,8.53-17.17,13.11-25.62,3-5.55,6-11.17,8.74-16.84,3.06-6.31,6.82-12.25,9.49-18.76a26.93,26.93,0,0,1,2.67-4.08c2.51-.46,1.77,1.3.63,3.44-6,11.14-11.71,22.44-17.37,33.73-11.68,23.3-23.62,46.47-35.38,69.73-15.4,30.44-31,60.79-46.49,91.19-2.15,4.21-4.27,8.44-6.41,12.66-1.5,3-3.77,4.6-5.45,3.89-2.3-1-2.68-3-1.13-6.38A16.82,16.82,0,0,1,685.16,426.25Z" transform="translate(-100 -163.53)"/><path class="cls-8" d="M561,382.11a2.25,2.25,0,0,0,.36-.57,4.47,4.47,0,0,0-.6.43Z" transform="translate(-100 -163.53)"/><path class="cls-8" d="M719.78,238.14c-.53-3.49-3.48-3.15-6.14-3.14-2.06,0-4.37,1.11-6.15-1.11-.23-2.17-.46-4.39-.69-6.61l-4-.28c-1.11,1.83-1.76,3.85-4.58,4.13-18.9,1.9-36.26-2.68-51.38-13.78-6.11-4.49-11.82-8.35-19.44-9.19-4.22-.46-6.66-2.86-6.12-7.58.65-5.66-1.19-11.09-1.83-16.63,1-5.1-.89-9.67-3-14-2.35-5-6.88-6.8-12.12-6.3-4.63.45-8.85,1.9-10.25,7.21-2.39,9-7.44,17.2-8.25,26.7-4.11,3.56-9.14,1.46-13.71,2.22-2.45.4-5.53-.69-7.06,2-3.33,5.89-9.54,6.28-14.91,8.32-11.23,7.08-22.7,5.71-34.25.91-7.93,2.14-12.22-4.49-18-7.49-2.09,2,.47,6.87-4.4,7.18-3.35-3-7.2-2.94-11.23-1.86h0c-2.85,2.91-2.81,5.85-.05,8.8,3.77-.11,5.66,3.79,9.14,4.31l6.66,3c6.66.43,4,4.93,3.7,8.43,2.1,11.49,2.73,12.15,14,13.2,3.72.34,7.47.31,11.2.51,7.08.38,14.19.55,21.24,1.29,7.24.75,12.5,8,11.23,14.78-2.1,11.31-5.55,22.5-.46,34.05,1.08,2.46.18,5.9-.11,8.86-1.37,14.12-2.88,28.22-4.24,42.34-.31,3.24-1.94,7.25,1.45,9.42,9.08,5.81,6.85,13.83,5,21.93a1.8,1.8,0,0,1,.3,1.85c1.29-.75,2.75-.55,4.2-.44,1.55-6.93,2.89-13.85.62-20.93-.85-2.64-.63-5.85,2.06-6.89,5.77-2.22,5.73-6.87,6.45-11.73q6.48-44.19,13.47-88.31c.62-3.88-.41-9.09,5-11.05.27.88.54,1.76.8,2.65,1-1.16,1-2-.2-2.47,1.21.48,1.24,1.31.2,2.47l-.81,4.08,3.43.1a31.08,31.08,0,0,1,.92-5.51c.53-1.52,2.13-2,3.71-1.72a2.83,2.83,0,0,1,2.66,3c-.15,4.48-.46,8.95-.71,13.43h0c-.54,1.75-1.41,3.46-1.58,5.24-2.73,28.56-5.13,57.14-6.36,85.8-.55,13-1,26.08,2.86,38.8l3.07.95c.71-8.23-1.77-16.21-1.66-24.47.3-22.84,2.15-45.56,3.73-68.33.88-12.66,3.55-25.19,2.8-38,.79-4.71.49-9.67,3-14.18,6.43,1.68,7.64,5.87,7.77,11.87.44,19.52-2.45,38.75-4.2,58.08-2.33,25.74-4.28,51.48-4.34,77.35q2.32,1.33,4.63,2.69c.56-13.07-.1-26.17,1.18-39.24.52-5.38,1-9.44,8.06-8.86,4.56.38,6.56-2.77,6.45-7.26,0-2.24.11-4.49.19-6.73.72-18.32,1.31-36.64,2.21-54.95.6-12.11,9.19-19.66,21.09-18.66s23.83,2.14,35.7,3.65c5.4.68,9.41-1.17,10.4-6.05,1.24-6.18,3.81-9.07,10.3-8.93,2.37.06,4.81-1.83,7.18-2.92S720.23,241.14,719.78,238.14ZM501.07,221.63c-2.53-.1-5-1.22-7.54-1.89-1.26-1.26-2.57-2.48-3.79-3.78-2.74-2.93.69-2.23,1.75-2.93l1.29-1.51L491.49,213c3.21.57,6.08,3.37,9.59,1.79,2.35-1,3.45-.44,3.37,2C504.37,219.09,504,221.74,501.07,221.63Zm66.2-11.55c.85-4,2.71-5.87,6.73-5.77,2.92.08,5.85,0,9.82,0l-9.67,49.47c-4.3-4.42-9-5.13-14.33-4.24C561.13,235.25,564.56,222.74,567.27,210.08ZM563.18,272c-.37-6,1.72-11.33,3.15-17.22C574.35,264.68,573.57,268.92,563.18,272Zm-5.41-40.77c-2.24,12.66-2.53,12.55-15.44,11.84-8.23-.46-16.47-.5-24.68-1.09-9.83-.69-11.46-2.84-10.62-12.85a26.3,26.3,0,0,1,.57-4.45c2.52-9.56.9-11.19,11.13-7.39,14.78,5.49,27.83.27,41.61-5.93C562.12,218.82,558.88,225,557.77,231.21ZM585,245.66c-6.2,31.5-10.41,63.32-14.68,95.11-1,7.09-6.92,8.86-11.24,13.23.86-10.14,1.69-20.29,2.6-30.42.5-5.58,1.1-11.14,1.7-16.71.64-6,.67-11.65-1.57-17.56-2.6-6.8-1.49-10.07,5.33-12.4,7.74-2.63,9.45-7.52,10.57-14.69,1-6.75.68-14.24,5.13-20.27-2.62-4.93,1.79-8.76,1.27-13,1.36,7.33,1.43,7.73-.66,12.59A3.84,3.84,0,0,1,585,245.66Zm62.68-17.42c2.1-2.46,4.66-1.5,7,0l1.51,1.41-1.51-1.41c-4.47,8.33-12.85,12.65-19.33,18.92-1.48.26-2.3-.83-1.59-1.75C638.26,239.61,642.88,233.85,647.68,228.24Zm-3.81-8c.59,6.57-2.46,9.27-4.78,13.47C638.64,227.18,638.63,227.17,643.87,220.28Zm-20.46-6.39a15.39,15.39,0,0,1,14.35,3c-6.34,13.58-8,28.77-15.09,42.12C620.66,243.69,623.73,228.82,623.41,213.89Zm-19.49-19,4.43-2.33c-2.44-2.56-8-.56-8.64-5.63-.63-4.75-1.43-9.57.79-14.18,1.16-2.39,2.5-4.53,5.7-4.44a7.09,7.09,0,0,1,6.28,3.81c2.2,3.66,2.27,7.74,2.54,11.79-1.82,3.2-2.24,7.47-6.67,8.65l-4.43,2.33c4,.76,9.77-.59,8.16,6.85-.45,2.06-2.21,1.42-3.52,1.69-2.12-2-4.62-1.81-7.18-1.22l-6.58-.4C594.33,194.91,598.36,193.91,603.92,194.92Zm-3.69,8.24a6.23,6.23,0,0,1-.79.33A6.23,6.23,0,0,0,600.23,203.16Zm-1.07.42a8.67,8.67,0,0,0-3.48,1.51A8.67,8.67,0,0,1,599.16,203.58Zm-6,38.61Zm-2.64-5.55c-1-11.06,0-20.84,4.3-30.17l11.46-.32c12,3.34,12.21,3.34,12.23,15.67,0,6.28-.85,12.55-1.36,19.52C608.35,237.94,599.88,235.59,590.53,236.64Zm103.24,17.55c-1.11,3.71-4.43,3.07-7.51,2.76-11.9-1.2-23.81-2.4-35.74-3.28-4.24-.31-9.14-2.73-12.6,1.8-4.65,6.09-11.39,10.78-11.61,19.76-.43,18.32-1.39,36.63-2.13,54.94q-.13,3.36-.16,6.73c0,3.19-1.39,4.68-4.78,4.62-3.64-.06-4.35-2-4.07-5,.8-8.94,1.41-17.89,2.32-26.82,1.07-10.4,2.12-20.83,3.65-31.17a45.42,45.42,0,0,1,14.07-27.11h0c8.95-5.13,17-11.25,22.76-20,11.18.39,21.6,6.42,33.09,4.49a2.22,2.22,0,0,1,2.57,1.67C694.34,243.05,695.39,248.71,693.77,254.19Zm8.24-9.64c-2.19-.12-3.14-1.46-3.2-3.63-.09-2.91,1.38-2.21,3.43-2.1,4,.21,8-.36,14.29-.74C711.28,243.32,707,244.82,702,244.55Z" transform="translate(-100 -163.53)"/><path class="cls-8" d="M583.45,241.52l-.18-.15c-.15.19-.29.39-.43.58.08.15.14.29.23.44C583.2,242.08,583.33,241.8,583.45,241.52Z" transform="translate(-100 -163.53)"/><path class="cls-8" d="M585.34,308.76c-3.52,23.94-6.19,48.08-14.29,71.12a3.7,3.7,0,0,0,4.07,2c1.5-5,3.17-9.9,4.47-14.93,5.2-20.2,8.08-40.84,10.73-61.48C592.73,286.7,596,268,596.59,249l-3.43-.1C590.58,268.87,588.26,288.86,585.34,308.76Z" transform="translate(-100 -163.53)"/><path class="cls-9" d="M166.7,859.75v16.6a9,9,0,0,1-2.9,7.1,38.14,38.14,0,0,1-26.3,10c-20.7-.1-37.5-15.1-37.5-37.6s16.8-37.4,37.6-37.4c10.9,0,18.8,3.8,24.9,9.9A4.75,4.75,0,0,1,164,832a5,5,0,0,1-5.1,5,5.43,5.43,0,0,1-3.6-1.4,25,25,0,0,0-17.7-7.4c-15.1,0-26.4,11.5-26.4,27.8s11.3,27.9,26.4,27.9a27.65,27.65,0,0,0,18.3-7.2v-13h-19a4.89,4.89,0,0,1-4.8-4.9,4.78,4.78,0,0,1,4.8-4.7H161C164.7,854,166.7,856.05,166.7,859.75Z" transform="translate(-100 -163.53)"/><path class="cls-9" d="M180.6,886.25v-61.8a5.53,5.53,0,0,1,5.5-5.4,5.42,5.42,0,0,1,5.3,5.4v58H220a4.87,4.87,0,0,1,4.9,4.7,5,5,0,0,1-4.9,4.9H186.5C182.7,892,180.6,889.85,180.6,886.25Z" transform="translate(-100 -163.53)"/><path class="cls-9" d="M266.3,818.35c21.6,0,36.5,16,36.5,37.4s-14.9,37.4-36.5,37.4-36.5-16-36.5-37.4S244.7,818.35,266.3,818.35Zm0,9.7c-15.5,0-25.3,11.8-25.3,27.8,0,15.8,9.8,27.8,25.3,27.8,15.3,0,25.3-11.9,25.3-27.8S281.6,828.05,266.3,828.05Z" transform="translate(-100 -163.53)"/><path class="cls-9" d="M315.9,886.25v-60.9c0-3.7,2.1-5.8,5.9-5.8h28.1c12.9,0,20.4,7.9,20.4,18.4,0,9.1-6,15.2-12.6,16.6,7.7,1.2,14,9,14,17.8,0,11.4-7.6,19.5-20.9,19.5h-29C318,892,315.9,889.85,315.9,886.25Zm31.9-36c7.3,0,11.3-4.6,11.3-10.5s-4-10.6-11.3-10.6H326.7v21.2h21.1Zm.5,32.2c7.6,0,12.2-4.3,12.2-11.4,0-6-4.1-11.2-12.2-11.2H326.7v22.6Z" transform="translate(-100 -163.53)"/><path class="cls-9" d="M446.4,887a5.55,5.55,0,0,1-5.5,5.5,5.37,5.37,0,0,1-5.1-3.5l-4.6-12H395.3l-4.6,12a5.49,5.49,0,0,1-10.6-2,7.79,7.79,0,0,1,.4-2.1l23.9-59.8a9.48,9.48,0,0,1,8.8-6.1,9.62,9.62,0,0,1,8.9,6.1l23.9,59.8A13,13,0,0,1,446.4,887Zm-18.8-19.6-14.4-38.3-14.3,38.3Z" transform="translate(-100 -163.53)"/><path class="cls-9" d="M457.4,886.25v-61.8a5.53,5.53,0,0,1,5.5-5.4,5.42,5.42,0,0,1,5.3,5.4v58h28.5a4.87,4.87,0,0,1,4.9,4.7,5,5,0,0,1-4.9,4.9H463.2C459.5,892,457.4,889.85,457.4,886.25Z" transform="translate(-100 -163.53)"/><path class="cls-9" d="M604.8,859.75v16.6a9,9,0,0,1-2.9,7.1,38.14,38.14,0,0,1-26.3,10c-20.7,0-37.6-15-37.6-37.6s16.8-37.4,37.6-37.4c10.9,0,18.8,3.8,24.9,9.9A4.75,4.75,0,0,1,602,832a5,5,0,0,1-5.1,5,5.43,5.43,0,0,1-3.6-1.4,25,25,0,0,0-17.7-7.4c-15.1,0-26.4,11.5-26.4,27.8s11.3,27.9,26.4,27.9a27.65,27.65,0,0,0,18.3-7.2v-13h-19a4.89,4.89,0,0,1-4.8-4.9,4.78,4.78,0,0,1,4.8-4.7H599C602.8,854,604.8,856.05,604.8,859.75Z" transform="translate(-100 -163.53)"/><path class="cls-9" d="M679.5,887a5.55,5.55,0,0,1-5.5,5.5,5.37,5.37,0,0,1-5.1-3.5l-4.6-12H628.4l-4.6,12a5.49,5.49,0,0,1-10.6-2,7.79,7.79,0,0,1,.4-2.1l23.9-59.8a9.48,9.48,0,0,1,8.8-6.1,9.62,9.62,0,0,1,8.9,6.1l23.9,59.8A7.12,7.12,0,0,1,679.5,887Zm-18.8-19.6-14.4-38.3L632,867.35Z" transform="translate(-100 -163.53)"/><path class="cls-9" d="M752.9,887.05v-52.6l-22.8,56a3.09,3.09,0,0,1-2.9,2.1,2.91,2.91,0,0,1-2.9-2.1l-22.8-56v52.6a5.42,5.42,0,0,1-5.3,5.4,5.53,5.53,0,0,1-5.5-5.4v-59a9.16,9.16,0,0,1,17.6-3.4l19,47,19-47a9.16,9.16,0,0,1,17.6,3.4v59a5.53,5.53,0,0,1-5.5,5.4A5.4,5.4,0,0,1,752.9,887.05Z" transform="translate(-100 -163.53)"/><path class="cls-9" d="M779.8,886.25v-60.9c0-3.7,2.1-5.8,5.9-5.8h38.4a5,5,0,0,1,4.9,4.9,4.87,4.87,0,0,1-4.9,4.7H790.7v21.2h32.7a4.87,4.87,0,0,1,4.9,4.7,5,5,0,0,1-4.9,4.9H790.7v22.6h33.4a4.87,4.87,0,0,1,4.9,4.7,5,5,0,0,1-4.9,4.9H785.7C781.9,892,779.8,889.85,779.8,886.25Z" transform="translate(-100 -163.53)"/><path class="cls-9" d="M864,884.15a4.93,4.93,0,0,1,4.9-5,4.19,4.19,0,0,1,2.7.9,14.26,14.26,0,0,0,9.7,3.6c8.4,0,13.6-5.6,13.6-14.1v-45a5.51,5.51,0,0,1,5.4-5.4,5.44,5.44,0,0,1,5.4,5.4v45.1c0,16.1-10.2,23.7-23.7,23.7-6.1,0-11.3-1.5-16-5.2A5.22,5.22,0,0,1,864,884.15Z" transform="translate(-100 -163.53)"/><path class="cls-9" d="M980.1,887a5.55,5.55,0,0,1-5.5,5.5,5.37,5.37,0,0,1-5.1-3.5l-4.6-12H929l-4.6,12a5.49,5.49,0,0,1-10.6-2,7.79,7.79,0,0,1,.4-2.1l23.9-59.8a9.48,9.48,0,0,1,8.8-6.1,9.62,9.62,0,0,1,8.9,6.1l23.9,59.8A13,13,0,0,1,980.1,887Zm-18.8-19.6-14.4-38.3-14.3,38.3Z" transform="translate(-100 -163.53)"/><path class="cls-9" d="M1053.4,887.05v-52.6l-22.8,56a3.09,3.09,0,0,1-2.9,2.1,2.91,2.91,0,0,1-2.9-2.1l-22.8-56v52.6a5.42,5.42,0,0,1-5.3,5.4,5.53,5.53,0,0,1-5.5-5.4v-59a9.16,9.16,0,0,1,17.6-3.4l19,47,19-47a9.16,9.16,0,0,1,17.6,3.4v59a5.53,5.53,0,0,1-5.5,5.4A5.4,5.4,0,0,1,1053.4,887.05Z" transform="translate(-100 -163.53)"/><path class="cls-10" d="M781.2,565.45c0,113.3-90.7,202.9-203.9,202.9S372.2,678,372.2,564.65s91.2-205.3,204.4-205.3S781.2,452.25,781.2,565.45Z" transform="translate(-100 -163.53)"/><path class="cls-11" d="M394.7,573.85c-2-19.2-16.4-26.2-18.3-51.9a206.78,206.78,0,0,0-4.3,41.9,203.2,203.2,0,0,0,16.1,79.6C384.8,612.35,397.4,599.15,394.7,573.85Z" transform="translate(-100 -163.53)"/><path class="cls-11" d="M475.9,385.85a206.26,206.26,0,0,0-62,54.1c38.6-32.6,77.5-28.4,84.4-34.4,8.8-7.7-29.5-10.8-29.5-10.8S470.3,390.85,475.9,385.85Z" transform="translate(-100 -163.53)"/><path class="cls-11" d="M638.6,747.55c-40.6-20.8-11.1-50.8.3-61.9s44.6-46.5,17.8-73.9-30.8-57.6-16.4-85.6,42.7-21.9,58.6-9.2,39.1,34.8,50.9,27.8c18.4-11.2-.5-34.5-.5-34.5s-.7,23.6-5.9,23.6-6.3-25.1-9.8-27.4c-10-3.7-3.7,18.5-22,8.5s-11.7-33.8-3.4-44.1,22.2,5.1,26,8.4a30.51,30.51,0,0,0,19.2,7.1c5.8,0,18.4,29,25.3,46.1-15.2-98-99.9-173-202.1-173a203.21,203.21,0,0,0-50.8,6.4,214.43,214.43,0,0,1,22.6-2.8c69.5-5.6,92.9,12.5,90.7,21.5s-4.7,13.4-13.6,12.5-17.9-4.4-23.4,2.7-10.9,6.3-16.4,4-9.3-.5-12.7,4.6-10.7,19.1-16.1,13.8-4.4-2.9-2.7-8.1,8.9-10.8,5.6-11.3-38.2-1.1-61.7,23.7c25.8,0,59.1,4.8,53.6,44.6s-38.3,59.3-73.7,89.4-76.4,97.9-29.8,141.7a52.56,52.56,0,0,1-25.1-3.2,204.7,204.7,0,0,0,233.6,53.4A47.59,47.59,0,0,1,638.6,747.55Zm-58.1-318c-5.9,10.6-16.2,10-19,8.3s-3.8-1.4,4.3-8.6S586.4,419,580.5,429.55Z" transform="translate(-100 -163.53)"/><path class="cls-12" d="M811.3,566.45a170.32,170.32,0,0,0-30.2-1.6v.6a209.27,209.27,0,0,1-2.8,33.8,102.36,102.36,0,0,1,32.9,2.5c65.1,18.7,60.2,97.7-13.3,97.7-172.8,0-240.3-301.4-401.3-301.4-68.5,0-123.2,47.6-123.2,99.1,0,46,29.7,98.3,95.9,109.2l7.4,1.2a200.71,200.71,0,0,1-4.5-34.9l-2.9-.4c-100.5-20-68.6-142.6,25-142.6,141.7,0,209.8,301.7,405.6,301.7,39.7,0,90.8-23.1,90.8-76.5C890.8,609.25,857.1,574.75,811.3,566.45Z" transform="translate(-100 -163.53)"/><path class="cls-9" d="M1087.1,818.35a12.9,12.9,0,1,1-12.9,12.9A12.8,12.8,0,0,1,1087.1,818.35Zm0,1.8a11.05,11.05,0,1,0,11,11A10.84,10.84,0,0,0,1087.1,820.15Zm.2,12.7h-3.1V838a1,1,0,0,1-.9,1,.94.94,0,0,1-1-1v-12.8a1.16,1.16,0,0,1,1.2-1.2h4.8a4.53,4.53,0,0,1,4.7,4.5,4.33,4.33,0,0,1-3.3,4.3l3.2,4.7a1.69,1.69,0,0,1,.2.5,1.11,1.11,0,0,1-1.1,1.1,1.05,1.05,0,0,1-.9-.5Zm.9-7.2h-4.1V831h4.1a2.65,2.65,0,1,0,0-5.3Z" transform="translate(-100 -163.53)"/></g></svg>